<svg xmlns="http://www.w3.org/2000/svg" viewBox="0 0 188.15 70.85"><defs><style>.cls-1{fill:#b58500;}</style></defs><title>Asset 2</title><g id="Layer_2" data-name="Layer 2"><g id="Layer_1-2" data-name="Layer 1"><path class="cls-1" d="M62.41,48.38l-.35,8.38c-.05.71,0,1.37-.12,2.12a12.74,12.74,0,0,1-.54,2.19A12.47,12.47,0,0,1,59.18,65a13.33,13.33,0,0,1-7.62,4.33,21.47,21.47,0,0,1-8.6,0A13.27,13.27,0,0,1,35.41,65,11.73,11.73,0,0,1,32.57,57l-.22-8.35.07-8.28L32.77,32a11.75,11.75,0,0,1,2.74-7.91A12.84,12.84,0,0,1,42.81,20a21,21,0,0,1,8.36,0,12.7,12.7,0,0,1,7.22,4.07,11.21,11.21,0,0,1,2.71,7.74l.21,8.29-.07,8.27Zm-1.17,0-.08-8.27-.35-8.26a10.9,10.9,0,0,0-2.75-7.49,12.29,12.29,0,0,0-7-3.78A20.4,20.4,0,0,0,43,20.7a12,12,0,0,0-6.77,4,10.89,10.89,0,0,0-2.41,7.45l-.2,8.22.09,8.28.35,8.2A10.22,10.22,0,0,0,36.63,64a11.57,11.57,0,0,0,6.68,3.59c5.08.91,11.09.08,14.3-3.9a10.34,10.34,0,0,0,2.27-7.12l.19-8.18Z"/><path class="cls-1" d="M47.87,33c0-.72,0-1.43,0-2.13a6.82,6.82,0,0,0-.22-1.71c-.06-.1,0-.1-.16-.15a1.12,1.12,0,0,0-.52,0,.53.53,0,0,0-.34.19,1.33,1.33,0,0,0-.19.55,84.5,84.5,0,0,0-.33,8.57L45.8,55.78a17.19,17.19,0,0,0,.28,4.12c.16.42.78.56,1.37.47s.81-.49.92-1.19a80.26,80.26,0,0,0,.37-8.69L49,33ZM49,33l.29,17.53a81.49,81.49,0,0,1-.09,8.83,2.78,2.78,0,0,1-.42,1.22,1.94,1.94,0,0,1-1.19.77,2.91,2.91,0,0,1-1.31,0,1.77,1.77,0,0,1-1.15-.91A7.11,7.11,0,0,1,44.73,58c0-.74-.08-1.48-.1-2.21l-.3-17.55-.07-4.38a27.31,27.31,0,0,1,.15-4.56A3.19,3.19,0,0,1,45,27.83a2.74,2.74,0,0,1,1.48-1,3.26,3.26,0,0,1,1.64,0,2.38,2.38,0,0,1,1.48,1.21,7.25,7.25,0,0,1,.53,2.58c.06.76.08,1.51.09,2.26Z"/><path class="cls-1" d="M188,20.9c.14,15.63.18,31.36.09,46.94v.93h-.91l-10.7-.06h-.65l-.17-.61-6.24-21.38,1.45-.21-.08,14.82v1.85a5.41,5.41,0,0,1-.35,2,5,5,0,0,1-2.91,2.9,5.21,5.21,0,0,1-2,.34h-1.85l-3.71,0h-.58v-.58l.25-46.94v-.34h.33l10.21.06h.2l.06.19L177.12,42l-.3,0,.07-14.72a10.33,10.33,0,0,1,.35-3.66,4.52,4.52,0,0,1,2.6-2.51,11.3,11.3,0,0,1,3.67-.26H188Zm-1.65,0H183.5a11.29,11.29,0,0,0-3.63.31,4.39,4.39,0,0,0-2.52,2.48,10.13,10.13,0,0,0-.3,3.61L177.13,42v1l-.32-1L169.87,21l.26.19-10.21.06.33-.33.26,46.94-.59-.58,3.71,0h1.85a4.16,4.16,0,0,0,1.59-.28,3.81,3.81,0,0,0,2.16-2.2,4.07,4.07,0,0,0,.25-1.58V61.32l-.08-14.82,0-5.09,1.48,4.88,6.47,21.31-.83-.62,10.7-.06-.92.92c-.09-15.43,0-30.72.09-46.12Z"/><path class="cls-1" d="M9.51,41.25a5.24,5.24,0,0,0,2.7-4.58V33.19a14.28,14.28,0,0,1,.4-4.47,1.54,1.54,0,0,1,1.54-.87,1.54,1.54,0,0,1,1.65,1,20.65,20.65,0,0,1,.35,5v4.27h.47a56.33,56.33,0,0,1,11.72-2.86,26.3,26.3,0,0,0-1.05-8,10.48,10.48,0,0,0-4.61-5.24,16.58,16.58,0,0,0-8.91-2.2,14.51,14.51,0,0,0-8.88,2.54A10,10,0,0,0,.73,28,46.19,46.19,0,0,0,0,37.8v8.73Z"/><path class="cls-1" d="M14.06,49.78h2.47v5.56a13.17,13.17,0,0,1-.48,4.41,1.78,1.78,0,0,1-1.81,1.13,1.59,1.59,0,0,1-1.63-1,13.49,13.49,0,0,1-.4-4.16V46.56A2.25,2.25,0,0,0,9.06,44.5L0,48.43v3.32A55.71,55.71,0,0,0,.35,59a11.65,11.65,0,0,0,1.74,4.63A12.09,12.09,0,0,0,8,68.2a6.37,6.37,0,0,0,1.2.36,10.43,10.43,0,0,0,7.23-.82,8.46,8.46,0,0,0,3.15-3.26l1.13,3.36h7.67V42.64H16.47a2.41,2.41,0,0,0-2.41,2.41Z"/><path class="cls-1" d="M71.1,46.07h.08c3.3,0,6-3.09,6-7.09V21.39H65V39c0,4,2.73,7.1,6,7.09Z"/><path class="cls-1" d="M77.21,58.94V47.78a8.56,8.56,0,0,1-12.21,0v12a8.6,8.6,0,0,0,8.6,8.6h7a4,4,0,0,0,4-4V63a4,4,0,0,0-4-4Z"/><path class="cls-1" d="M78.54,35.67a23.32,23.32,0,0,1-2.48-9.83,17.9,17.9,0,0,1,.7-5.08,14.56,14.56,0,0,1,2.42-4.57,12.75,12.75,0,0,1,1.75-1.92,11.86,11.86,0,0,1,2-1.68,17.13,17.13,0,0,1,4.84-2.07,18.35,18.35,0,0,1,10.5.55L97,12.54a1.26,1.26,0,0,1-.09-.37,1.09,1.09,0,0,1,.41-.92c.73-.45,1-.14,1-.2h.07l.12,0,.21.06.41.12.8.24,1.59.5,1.63.53,1.54.55a33.29,33.29,0,0,0,6.15,1.57l.29.06c-.09,0,.31,0,.49.08l.67.14,1.32.3c.88.21,1.76.44,2.63.69a45.45,45.45,0,0,1,5.16,1.85,23.47,23.47,0,0,1,4.91,2.8,10.54,10.54,0,0,1,3.78,4.9l.06.28a1.29,1.29,0,0,0-.18-.56l.06.09.12.19.25.43c.16.29.31.58.44.88a13.6,13.6,0,0,1,.69,1.8,18.33,18.33,0,0,1,.72,3.7,22.88,22.88,0,0,1,0,3.7,33.8,33.8,0,0,1-.47,3.62l-1.22-2.18a2,2,0,0,1,1.16,1.2,2.2,2.2,0,0,1,.11.74v0l0,.21-.05.27-.07.37-.16.65-.32,1.23c-.23.83-.4,1.56-.71,2.46l-1.62,4.72.08-.3a47.2,47.2,0,0,1-1.33,5.08A39.77,39.77,0,0,1,125.7,59a24.89,24.89,0,0,1-2.79,4.69,15,15,0,0,1-4.42,4l.53-.38a12.34,12.34,0,0,1-4,2.32,19,19,0,0,1-4.13,1,22.15,22.15,0,0,1-4.14.14,23.33,23.33,0,0,1-4-.59l-.29-.07h0c.73.2.27.06.19.08l-.4-.07c-.26,0-.5-.11-.75-.17a12.7,12.7,0,0,1-1.4-.45,15.38,15.38,0,0,1-2.53-1.28,19.51,19.51,0,0,1-4.07-3.58,26.68,26.68,0,0,1-3-4.3L89.4,58.09l-1-2.33.25.36a2.54,2.54,0,0,1-.42-.75L88.1,55l-.31-.82-.61-1.62c-.42-1.08-.85-2.15-1.32-3.2a32.84,32.84,0,0,0-3.26-6l0-.09-2-3.71C79.83,38.22,79.13,37,78.54,35.67Zm.42-.21c.64,1.26,1.39,2.46,2.13,3.68L82.22,41l1.19,1.82-.06-.09a48.16,48.16,0,0,1,4,5.85c.61,1,1.18,2,1.75,3.08L90,53.16l.4.78.2.37c0,.09.23.33,0,0l.25.36,1.18,2,1.3,1.92a23.88,23.88,0,0,0,3,3.38,15.47,15.47,0,0,0,3.47,2.53,13,13,0,0,0,1.86.79,6.7,6.7,0,0,0,.93.24l1.44.23-.29-.08a21.42,21.42,0,0,0,6.57.21,14,14,0,0,0,3-.82,11.13,11.13,0,0,0,2.41-1.34l.27-.21.25-.17c2.14-1.14,4-3.67,5.37-6.4a36.15,36.15,0,0,0,1.87-4.31,43.68,43.68,0,0,0,1.38-4.5l0-.13.06-.17,1.78-4.56c.27-.65.51-1.52.75-2.26l.35-1.15.15-.55.06-.23s0-.1,0,0v.05h0a2,2,0,0,0,.1.71A1.88,1.88,0,0,0,129.27,41l-1.22-2.18a22.18,22.18,0,0,0,.6-6.25,15.65,15.65,0,0,0-.48-3,10.51,10.51,0,0,0-.49-1.4,6.62,6.62,0,0,0-.3-.66l-.17-.32-.1-.17-.06-.09a2.25,2.25,0,0,1-.27-.75l.06.28a7.3,7.3,0,0,0-2.56-3.39,19.47,19.47,0,0,0-4.19-2.56,39.39,39.39,0,0,0-4.75-1.87c-.81-.27-1.64-.52-2.47-.74l-1.25-.33-1.43-.34.29.07a34.93,34.93,0,0,1-6.67-1.91l-1.59-.62-1.51-.55-1.56-.57-.78-.29L98,13.24l-.19-.07-.07,0,0,0c0-.06.24.25,1-.21A1.12,1.12,0,0,0,99,12a.91.91,0,0,0-.12-.37l-1.35,1.47a16.87,16.87,0,0,0-9.4-1,16.18,16.18,0,0,0-4.57,1.57,10.83,10.83,0,0,0-2,1.41,10.49,10.49,0,0,0-1.75,1.71,13.75,13.75,0,0,0-3.37,9.08A20.79,20.79,0,0,0,79,35.46Z"/><path class="cls-1" d="M120.23,4.32a9.76,9.76,0,0,1-.62,6.85A5.66,5.66,0,0,1,117,13.69c-3.59,1.64-7.41,1-9-1.39-1.89-2.76-1-7.62,3-10.34,3.31-2.55,5.7-2.37,7.48-.86A6,6,0,0,1,120.23,4.32Z"/><path class="cls-1" d="M125.72,19.87c2,2.89,5.46.7,8.79-1.57s3.48-6.56.93-9.69C133.19,6,130.59,4.49,127.57,7,124,10,123.75,17,125.72,19.87Z"/><path class="cls-1" d="M138.16,20.89h-2.91v2A15.12,15.12,0,0,1,138.16,20.89Z"/><path class="cls-1" d="M147.46,58.45V48.12h7.62V39.19h-7.62v-8.9h3.45a4.69,4.69,0,0,0,4.69-4.7h0a4.7,4.7,0,0,0-4.69-4.7h-5.17c1.28,1.37,1.26,3.69,1,6.05-.43,3.27-3,4.78-6.09,5.5a8.46,8.46,0,0,1-4,0c-.52-.13-1-.28-1.47-.44v6a7.57,7.57,0,0,1,3.7-.22c3.38.45,4.66,1.92,4.83,3.8a4.8,4.8,0,0,1-.77,2.91A7.89,7.89,0,0,1,138.7,48a4.64,4.64,0,0,1-3-.09c-.16-.06-.31-.14-.46-.21V67.84h21.16V58.45Z"/></g></g></svg>